<?xml version="1.0" encoding="UTF-8" standalone="no"?>
<!-- Created with Inkscape (http://www.inkscape.org/) -->

<svg
   version="1.1"
   id="svg2847"
   xml:space="preserve"
   width="682.66669"
   height="682.66669"
   viewBox="0 0 682.66669 682.66669"
   xmlns="http://www.w3.org/2000/svg"
   xmlns:svg="http://www.w3.org/2000/svg"><defs
     id="defs2851"><clipPath
       clipPathUnits="userSpaceOnUse"
       id="clipPath2861"><path
         d="M 0,512 H 512 V 0 H 0 Z"
         id="path2859" /></clipPath></defs><g
     id="g2853"
     transform="matrix(1.3333333,0,0,-1.3333333,0,682.66667)"><g
       id="g2855"><g
         id="g2857"
         clip-path="url(#clipPath2861)"><g
           id="g2863"
           transform="translate(316.8477,74.1924)"><path
             d="m 0,0 h -61.872 c -12.973,0 -25.929,0.941 -38.766,2.815 L -114.2,4.797"
             style="fill:none;stroke:#000000;stroke-width:15;stroke-linecap:round;stroke-linejoin:round;stroke-miterlimit:10;stroke-dasharray:none;stroke-opacity:1"
             id="path2865" /></g><g
           id="g2867"
           transform="translate(418.4297,322.5342)"><path
             d="m 0,0 c -9.189,-81.568 -78.406,-144.964 -162.43,-144.964 -90.279,0 -163.465,73.186 -163.465,163.465 0,90.279 73.186,163.465 163.465,163.465 84.413,0 153.882,-63.985 162.553,-146.099"
             style="fill:none;stroke:#000000;stroke-width:15;stroke-linecap:round;stroke-linejoin:round;stroke-miterlimit:10;stroke-dasharray:none;stroke-opacity:1"
             id="path2869" /></g><g
           id="g2871"
           transform="translate(378.9014,233.2773)"><path
             d="m 0,0 c -4.305,11.448 -13.048,20.968 -24.65,26.075 -15.231,6.705 -43.986,10.946 -58.14,12.723 l -41.423,-26.151 -41.641,25.801 c -14.139,-1.895 -42.857,-6.38 -58.03,-13.213 -10.636,-4.789 -18.82,-13.293 -23.343,-23.565"
             style="fill:none;stroke:#000000;stroke-width:15;stroke-linecap:round;stroke-linejoin:round;stroke-miterlimit:10;stroke-dasharray:none;stroke-opacity:1"
             id="path2873" /></g><g
           id="g2875"
           transform="translate(276.7451,462.4023)"><path
             d="m 0,0 -46.359,-0.195 c -8.463,-0.035 -15.633,-5.492 -18.243,-13.065 -0.977,-2.838 -3.675,-4.723 -6.677,-4.736 -10.789,-0.046 -19.499,-8.829 -19.453,-19.618 l 0.17,-40.736 c 0,0 17.142,0.277 22.963,-5.417 1.225,-1.197 3.281,-0.34 3.274,1.371 l -0.113,26.779 c -0.04,9.298 7.466,16.867 16.764,16.906 l 0.202,10e-4 c 2.786,0.012 5.542,-0.406 8.179,-1.225 5.018,-1.556 10.209,-2.481 15.463,-2.459 l 2.08,0.009 c 5.253,0.023 10.437,0.99 15.441,2.59 2.63,0.84 5.382,1.281 8.168,1.293 l 0.203,0.001 c 9.297,0.039 16.867,-7.466 16.906,-16.765 l 0.113,-26.778 c 0.007,-1.712 10.21,-2.517 11.424,-1.31 5.774,5.743 14.776,5.577 14.776,5.577 l -0.138,33.014 C 45.037,-19.936 24.827,0.105 0,0 Z"
             style="fill:none;stroke:#000000;stroke-width:15;stroke-linecap:round;stroke-linejoin:round;stroke-miterlimit:10;stroke-dasharray:none;stroke-opacity:1"
             id="path2877" /></g><g
           id="g2879"
           transform="translate(186.1973,384.0527)"><path
             d="m 0,0 c -3.415,-1.792 -5.743,-5.373 -5.726,-9.496 l 0.05,-11.829 c 0.026,-5.896 4.824,-10.654 10.72,-10.629 l 4.037,0.017 c 0.398,-15.491 6.971,-30.374 18.774,-40.451 9.502,-8.113 22.842,-15.173 40.424,-15.295 17.58,0.271 30.86,7.443 40.293,15.635 11.718,10.177 18.165,25.114 18.433,40.609 l 4.037,0.016 c 5.895,0.025 10.654,4.824 10.629,10.719 l -0.05,11.829 c -0.017,4.124 -2.375,7.685 -5.805,9.448"
             style="fill:none;stroke:#000000;stroke-width:15;stroke-linecap:round;stroke-linejoin:round;stroke-miterlimit:10;stroke-dasharray:none;stroke-opacity:1"
             id="path2881" /></g><g
           id="g2883"
           transform="translate(296.1113,272.0752)"><path
             d="M 0,0 C -4.746,0.596 -8.313,4.615 -8.334,9.398 L -8.44,34.541"
             style="fill:none;stroke:#000000;stroke-width:15;stroke-linecap:round;stroke-linejoin:round;stroke-miterlimit:10;stroke-dasharray:none;stroke-opacity:1"
             id="path2885" /></g><g
           id="g2887"
           transform="translate(221.1963,306.3359)"><path
             d="m 0,0 0.105,-25.143 c 0.021,-4.782 -3.513,-8.833 -8.253,-9.467"
             style="fill:none;stroke:#000000;stroke-width:15;stroke-linecap:round;stroke-linejoin:round;stroke-miterlimit:10;stroke-dasharray:none;stroke-opacity:1"
             id="path2889" /></g><g
           id="g2891"
           transform="translate(184.3359,266.9531)"><path
             d="m 0,0 27.043,-29.546 c 5.063,-5.532 13.203,-6.988 19.87,-3.555 l 23.44,12.073"
             style="fill:none;stroke:#000000;stroke-width:15;stroke-linecap:round;stroke-linejoin:round;stroke-miterlimit:10;stroke-dasharray:none;stroke-opacity:1"
             id="path2893" /></g><g
           id="g2895"
           transform="translate(324.8623,267.5449)"><path
             d="m 0,0 -26.776,-29.818 c -5.024,-5.594 -13.175,-7.12 -19.881,-3.721 l -23.517,11.919"
             style="fill:none;stroke:#000000;stroke-width:15;stroke-linecap:round;stroke-linejoin:round;stroke-miterlimit:10;stroke-dasharray:none;stroke-opacity:1"
             id="path2897" /></g><g
           id="g2899"
           transform="translate(241.624,214.5332)"><path
             d="M 0,0 -8.217,-35.393"
             style="fill:none;stroke:#000000;stroke-width:15;stroke-linecap:round;stroke-linejoin:round;stroke-miterlimit:10;stroke-dasharray:none;stroke-opacity:1"
             id="path2901" /></g><g
           id="g2903"
           transform="translate(276.6162,178.8848)"><path
             d="M 0,0 -8.621,35.76"
             style="fill:none;stroke:#000000;stroke-width:15;stroke-linecap:round;stroke-linejoin:round;stroke-miterlimit:10;stroke-dasharray:none;stroke-opacity:1"
             id="path2905" /></g><g
           id="g2907"
           transform="translate(231.249,233.8525)"><path
             d="m 0,0 c -0.041,-0.021 -0.084,-0.037 -0.125,-0.058 l 10.5,-19.261 26.371,0.111 L 47.1,0.088 c -0.048,0.023 -0.097,0.041 -0.144,0.065"
             style="fill:none;stroke:#000000;stroke-width:15;stroke-linecap:round;stroke-linejoin:round;stroke-miterlimit:10;stroke-dasharray:none;stroke-opacity:1"
             id="path2909" /></g><g
           id="g2911"
           transform="translate(80.0928,105.6621)"><path
             d="m 0,0 v -70.656 c 0,-7.459 -6.047,-13.506 -13.506,-13.506 h -22.941 c -7.459,0 -13.506,6.047 -13.506,13.506 V 75.85 c 0,7.459 6.047,13.505 13.506,13.505 h 22.941 C -6.047,89.355 0,83.309 0,75.85 V 35.817"
             style="fill:none;stroke:#000000;stroke-width:15;stroke-linecap:round;stroke-linejoin:round;stroke-miterlimit:10;stroke-dasharray:none;stroke-opacity:1"
             id="path2913" /></g><g
           id="g2915"
           transform="translate(80.0928,44.7715)"><path
             d="m 0,0 86.965,-32.37 c 8.71,-3.241 17.928,-4.901 27.221,-4.901 h 105.683 c 14.79,0 29.276,4.203 41.768,12.119 l 132.325,74.655 c 8.73,7.752 10.349,20.78 3.781,30.433 -7.186,10.561 -19.075,12.396 -32.156,6.21 l -128.832,-56.725 0.152,12.262 c -1.706,17.156 -14.916,30.925 -31.987,33.34 l -78.454,9.034 c -18.099,2.56 -27.143,8.625 -42.919,17.854 -21.54,12.601 -46.046,19.241 -71.001,19.241 H 0"
             style="fill:none;stroke:#000000;stroke-width:15;stroke-linecap:round;stroke-linejoin:round;stroke-miterlimit:10;stroke-dasharray:none;stroke-opacity:1"
             id="path2917" /></g></g></g></g></svg>
