<svg enable-background="new 0 0 256 256" height="512" viewBox="0 0 256 256" width="512" xmlns="http://www.w3.org/2000/svg"><g id="Layer_1"><g><path d="m5 15.878h246v224.243h-246z" fill="#72c2e9"/><path d="m251 240.122h-246v-224.244h52.5l18.5 26.824h175z" fill="#efefef"/><path d="m224.176 15.878h26.824v26.824h-26.824z" fill="#fc5d3d"/><path d="m117.342 116.215c0 16.165-8.22 30.413-20.707 38.799-7.431 4.982-16.365 7.888-25.979 7.888s-18.548-2.906-25.979-7.888c-12.487-8.386-20.707-22.634-20.707-38.799 0-25.78 20.906-46.687 46.687-46.687s46.685 20.907 46.685 46.687z" fill="#f0c020"/><path d="m96.634 146.728v8.286c-7.431 4.982-16.365 7.888-25.979 7.888s-18.548-2.906-25.979-7.888v-8.286c0-8.627 6.999-15.626 15.626-15.626h20.707c8.626 0 15.625 6.999 15.625 15.626z" fill="#72c2e9"/><path d="m84.269 107.815h-26.822l.006-7.762c.002-2.611 2.119-4.727 4.731-4.727h13.84c1.679 0 3.332-.406 4.821-1.183l5.781-3.018c2.923 5.838 1.702 12.367-2.357 16.69z" fill="#7c7b7a"/><path d="m70.855 131.099c-7.405 0-13.408-6.003-13.408-13.408v-9.876h26.817v9.876c0 7.405-6.003 13.408-13.409 13.408z" fill="#ffb69f"/><path d="m84.269 107.815h-26.822l.006-7.762c.002-2.611 2.119-4.727 4.731-4.727h13.84c1.679 0 3.332-.406 4.821-1.183l5.781-3.018c2.923 5.838 1.702 12.367-2.357 16.69z" fill="#7c7b7a"/><path d="m70.855 131.099c-7.405 0-13.408-6.003-13.408-13.408v-9.876h26.817v9.876c0 7.405-6.003 13.408-13.409 13.408z" fill="#ffb69f"/><path d="m183.609 115.525h-45.5v-22.376h45.5c2.761 0 5 2.239 5 5v12.376c0 2.762-2.238 5-5 5z" fill="#fc5d3d"/><path d="m183.609 193.752h-45.5v-22.376h45.5c2.761 0 5 2.239 5 5v12.376c0 2.761-2.238 5-5 5z" fill="#13bf6c"/><path d="m214.609 154.638h-76.5v-22.376h76.5c2.761 0 5 2.239 5 5v12.376c0 2.762-2.238 5-5 5z" fill="#f0c020"/><g><path d="m93.673 142.485c-.981-.971-.99-2.554-.02-3.535 6.012-6.079 9.323-14.152 9.323-22.732 0-8.65-3.358-16.772-9.455-22.87-.977-.977-.977-2.559 0-3.535s2.559-.977 3.535 0c7.042 7.042 10.92 16.419 10.92 26.405 0 9.905-3.824 19.228-10.769 26.248-.973.983-2.554.989-3.534.019z" fill="#f8e5b0"/></g><g><path d="m65.733 153.212c-1.369-.18-2.332-1.436-2.152-2.805.18-1.368 1.423-2.334 2.805-2.152 9.714 1.278 19.717-1.754 27.277-9.314.977-.977 2.559-.977 3.535 0s.977 2.559 0 3.535c-8.629 8.629-20.148 12.224-31.465 10.736zm-10.282-2.891c-1.302-.578-2.584-1.239-3.811-1.964-1.189-.702-1.583-2.235-.881-3.424.703-1.189 2.238-1.583 3.424-.881 1.062.627 2.171 1.198 3.297 1.698 1.262.561 1.83 2.038 1.271 3.3-.56 1.261-2.035 1.833-3.3 1.271z" fill="#c5e5fe"/></g><path d="m45.5 35c1.38 0 2.5-1.12 2.5-2.5s-1.12-2.5-2.5-2.5h-20.141c-1.38 0-2.5 1.12-2.5 2.5s1.12 2.5 2.5 2.5z"/><circle cx="5" cy="116.12" r="2.5"/><path d="m251 13.38c-10.587 0-235.741 0-246 0-1.368 0-2.5 1.111-2.5 2.5v90.24c0 1.38 1.12 2.5 2.5 2.5s2.5-1.12 2.5-2.5v-87.74h48.684l17.755 25.74c.471.68 1.241 1.08 2.061 1.08h172.5v192.42h-241v-111.5c0-1.37-1.12-2.5-2.5-2.5s-2.5 1.13-2.5 2.5v114c0 1.396 1.122 2.5 2.5 2.5h246c1.381 0 2.5-1.108 2.5-2.5 0-6.799 0-213.267 0-224.24 0-1.377-1.103-2.5-2.5-2.5zm-188.737 5h159.417v21.82h-144.37zm164.407 21.82v-21.82h21.83v21.82z"/><path d="m243.52 23.359c-.939-.949-2.59-.949-3.54 0l-2.395 2.395-2.395-2.395c-.939-.949-2.59-.949-3.529 0-.98.971-.98 2.561-.011 3.53l2.4 2.4-2.4 2.4c-.959.961-.99 2.552.011 3.53.94.961 2.542.987 3.529 0l2.395-2.395 2.395 2.395c1.04 1.016 2.627.934 3.54 0 .979-.977.97-2.56 0-3.53l-2.4-2.4 2.4-2.4c.968-.966.98-2.549 0-3.53z"/><path d="m70.66 165.399c27.295 0 49.18-22.149 49.18-49.18 0-4.04-.49-8.05-1.45-11.92-.33-1.32-1.72-2.16-3.03-1.82-1.352.334-2.141 1.684-1.829 3.011v.01c.869 3.49 1.31 7.09 1.31 10.72 0 13.102-5.802 25.395-15.705 33.762v-3.254c0-9.546-7.421-17.373-16.795-18.059 2.733-2.858 4.424-6.721 4.424-10.979v-8.942c4.4-5.301 5.2-12.581 2.096-18.739-.651-1.302-2.221-1.725-3.39-1.1-6.162 3.219-6.999 3.92-9.45 3.92h-13.83c-3.989 0-7.229 3.239-7.239 7.22 0 4.44-.003 8.948-.003 17.641 0 4.248 1.684 8.103 4.406 10.959-9.553.498-17.178 8.403-17.178 18.078v3.254c-9.904-8.367-15.706-20.66-15.706-33.762 0-24.411 19.75-44.19 44.19-44.19 13.51 0 26.1 6.07 34.55 16.65.83 1.03 2.47 1.22 3.51.39 1.088-.855 1.255-2.451.4-3.51-9.086-11.379-22.991-18.53-38.46-18.53-27.15 0-49.19 21.992-49.19 49.19-.001 27.218 22.051 49.18 49.189 49.18zm-10.713-55.08h21.816v7.371c0 6.015-4.894 10.908-10.908 10.908s-10.908-4.894-10.908-10.908zm2.242-12.489h13.83c3.749 0 5.879-1.418 9.28-3.19 1.013 3.633.221 7.636-2.176 10.675h-23.173v-5.265c0-1.22 1.01-2.22 2.239-2.22zm-1.887 35.772h20.707c7.237 0 13.126 5.889 13.126 13.126v6.924c-7.029 4.416-15.116 6.748-23.475 6.748-8.369 0-16.455-2.332-23.484-6.748v-6.924c0-7.238 5.888-13.126 13.126-13.126z"/><path d="m113.63 97.779c1.306-.653 1.714-2.2 1.13-3.35-.6-1.21-2.13-1.74-3.35-1.14-1.23.609-1.74 2.109-1.141 3.34l.011.01c.63 1.29 2.168 1.718 3.35 1.14z"/><path d="m70.556 123.643c3.197 0 6.001-2.151 6.817-5.23.354-1.335-.442-2.703-1.776-3.058-1.336-.354-2.704.441-3.058 1.776-.235.891-1.051 1.512-1.983 1.512s-1.748-.621-1.983-1.512c-.354-1.335-1.721-2.131-3.058-1.776-1.334.354-2.13 1.723-1.776 3.058.816 3.078 3.619 5.23 6.817 5.23z"/><path d="m104.95 173.81h-68.58c-1.38 0-2.511 1.13-2.511 2.5 0 1.38 1.131 2.51 2.511 2.51h68.58c1.38 0 2.5-1.13 2.5-2.51 0-1.371-1.12-2.5-2.5-2.5z"/><path d="m104.95 187.229h-68.591c-1.369 0-2.489 1.12-2.489 2.5s1.12 2.5 2.489 2.5h68.591c1.38 0 2.5-1.12 2.5-2.5s-1.12-2.5-2.5-2.5z"/><path d="m104.939 214.06h-68.58c-1.369 0-2.5 1.12-2.5 2.49 0 1.38 1.131 2.51 2.5 2.51h68.58c1.38 0 2.511-1.13 2.511-2.51 0-1.37-1.131-2.49-2.511-2.49z"/><path d="m138.109 67.029c-1.38 0-2.5 1.12-2.5 2.5v147.841c0 1.386 1.114 2.5 2.5 2.5h43.921c1.38 0 2.5-1.12 2.5-2.5s-1.12-2.5-2.5-2.5h-41.421v-18.62h43c4.131 0 7.49-3.37 7.5-7.5v-12.38c-.01-4.13-3.369-7.49-7.5-7.49h-43v-11.741h74c4.136 0 7.5-3.364 7.5-7.5v-12.376c0-4.136-3.364-7.5-7.5-7.5h-74v-11.733h43c4.131-.01 7.5-3.369 7.5-7.5v-12.38c0-4.14-3.369-7.5-7.5-7.5h-43v-21.12c0-1.381-1.119-2.501-2.5-2.501zm45.5 106.841c1.381.01 2.5 1.13 2.5 2.5v12.38c0 1.38-1.119 2.5-2.5 2.5h-43v-17.38zm31-39.107c1.379 0 2.5 1.121 2.5 2.5v12.376c0 1.379-1.121 2.5-2.5 2.5h-74v-17.376zm-31-39.114c1.37 0 2.5 1.12 2.5 2.5v12.38c0 1.37-1.13 2.49-2.5 2.5h-43v-17.38z"/><circle cx="192.03" cy="217.37" r="2.5"/><path d="m199.53 217.37c0 1.38 1.119 2.5 2.5 2.5h30c1.38 0 2.5-1.12 2.5-2.5s-1.12-2.5-2.5-2.5h-30c-1.381 0-2.5 1.12-2.5 2.5z"/></g></g></svg>