<?xml version="1.0" standalone="no"?><svg xmlns="http://www.w3.org/2000/svg" viewBox="0 0 1440 320"><path fill="#7c3aed" fill-opacity="1" d="M0,128L40,117.3C80,107,160,85,240,90.7C320,96,400,128,480,133.3C560,139,640,117,720,96C800,75,880,53,960,80C1040,107,1120,181,1200,218.7C1280,256,1360,256,1400,256L1440,256L1440,320L1400,320C1360,320,1280,320,1200,320C1120,320,1040,320,960,320C880,320,800,320,720,320C640,320,560,320,480,320C400,320,320,320,240,320C160,320,80,320,40,320L0,320Z"></path></svg>