<?xml version="1.0" encoding="UTF-8" standalone="no"?>
<!-- Created with Inkscape (http://www.inkscape.org/) -->

<svg
   version="1.1"
   id="svg6159"
   xml:space="preserve"
   width="682.66669"
   height="682.66669"
   viewBox="0 0 682.66669 682.66669"
   xmlns="http://www.w3.org/2000/svg"
   xmlns:svg="http://www.w3.org/2000/svg"><defs
     id="defs6163"><clipPath
       clipPathUnits="userSpaceOnUse"
       id="clipPath6173"><path
         d="M 0,512 H 512 V 0 H 0 Z"
         id="path6171" /></clipPath></defs><g
     id="g6165"
     transform="matrix(1.3333333,0,0,-1.3333333,0,682.66667)"><g
       id="g6167"><g
         id="g6169"
         clip-path="url(#clipPath6173)"><g
           id="g6175"
           transform="translate(121.0002,278.4711)"><path
             d="m 0,0 16.367,-0.028 c 15.805,-0.03 28.632,13.439 28.632,30.064 v 0 C 44.999,46.64 32.204,60.1 16.42,60.1 H 0 Z"
             style="fill:none;stroke:#000000;stroke-width:15;stroke-linecap:butt;stroke-linejoin:miter;stroke-miterlimit:10;stroke-dasharray:none;stroke-opacity:1"
             id="path6177" /></g><g
           id="g6179"
           transform="translate(256.1243,271.0044)"><path
             d="M 0,0 V 67.567 H 4.428 L 30.377,38.485 56.246,67.567 h 3.797 V 0"
             style="fill:none;stroke:#000000;stroke-width:15;stroke-linecap:butt;stroke-linejoin:miter;stroke-miterlimit:10;stroke-dasharray:none;stroke-opacity:1"
             id="path6181" /></g><g
           id="g6183"
           transform="translate(345.9998,300.971)"><path
             d="m 0,0 v 15.1 c 0,12.427 10.074,22.5 22.5,22.5 v 0 C 34.926,37.6 45,27.527 45,15.1 V 0 C 45,-12.426 34.926,-22.5 22.5,-22.5 v 0 C 10.074,-22.5 0,-12.426 0,0 Z"
             style="fill:none;stroke:#000000;stroke-width:15;stroke-linecap:butt;stroke-linejoin:miter;stroke-miterlimit:10;stroke-dasharray:none;stroke-opacity:1"
             id="path6185" /></g><g
           id="g6187"
           transform="translate(233.4998,338.5712)"><path
             d="M 0,0 H -37.511 V -59.936 H 0"
             style="fill:none;stroke:#000000;stroke-width:15;stroke-linecap:butt;stroke-linejoin:miter;stroke-miterlimit:10;stroke-dasharray:none;stroke-opacity:1"
             id="path6189" /></g><g
           id="g6191"
           transform="translate(195.9892,308.6031)"><path
             d="M 0,0 H 22.511"
             style="fill:none;stroke:#000000;stroke-width:15;stroke-linecap:butt;stroke-linejoin:miter;stroke-miterlimit:10;stroke-dasharray:none;stroke-opacity:1"
             id="path6193" /></g><g
           id="g6195"
           transform="translate(391,466)"><path
             d="m 0,0 h 90.555 c 12.665,0 22.931,-10.266 22.931,-22.931 v -284.067 c 0,-12.664 -10.266,-22.931 -22.931,-22.931 H -360.53 c -12.664,0 -22.931,10.267 -22.931,22.931 V -225"
             style="fill:none;stroke:#000000;stroke-width:15;stroke-linecap:butt;stroke-linejoin:miter;stroke-miterlimit:10;stroke-dasharray:none;stroke-opacity:1"
             id="path6197" /></g><g
           id="g6199"
           transform="translate(7.5394,256)"><path
             d="M 0,0 V 187.069 C 0,199.734 10.266,210 22.931,210 h 345.431"
             style="fill:none;stroke:#000000;stroke-width:15;stroke-linecap:butt;stroke-linejoin:miter;stroke-miterlimit:10;stroke-dasharray:none;stroke-opacity:1"
             id="path6201" /></g><g
           id="g6203"
           transform="translate(7.5394,421.0638)"><path
             d="M 0,0 H 496.947"
             style="fill:none;stroke:#000000;stroke-width:15;stroke-linecap:butt;stroke-linejoin:miter;stroke-miterlimit:10;stroke-dasharray:none;stroke-opacity:1"
             id="path6205" /></g><g
           id="g6207"
           transform="translate(7.5394,195.6163)"><path
             d="M 0,0 H 496.947"
             style="fill:none;stroke:#000000;stroke-width:15;stroke-linecap:butt;stroke-linejoin:miter;stroke-miterlimit:10;stroke-dasharray:none;stroke-opacity:1"
             id="path6209" /></g><g
           id="g6211"
           transform="translate(256,173.5712)"><path
             d="M 0,0 V -15"
             style="fill:none;stroke:#000000;stroke-width:15;stroke-linecap:butt;stroke-linejoin:miter;stroke-miterlimit:10;stroke-dasharray:none;stroke-opacity:1"
             id="path6213" /></g><g
           id="g6215"
           transform="translate(286,173.5712)"><path
             d="M 0,0 V -15"
             style="fill:none;stroke:#000000;stroke-width:15;stroke-linecap:butt;stroke-linejoin:miter;stroke-miterlimit:10;stroke-dasharray:none;stroke-opacity:1"
             id="path6217" /></g><g
           id="g6219"
           transform="translate(226,173.5712)"><path
             d="M 0,0 V -15"
             style="fill:none;stroke:#000000;stroke-width:15;stroke-linecap:butt;stroke-linejoin:miter;stroke-miterlimit:10;stroke-dasharray:none;stroke-opacity:1"
             id="path6221" /></g><g
           id="g6223"
           transform="translate(38.5926,398.5712)"><path
             d="M 0,0 V -15"
             style="fill:none;stroke:#000000;stroke-width:15;stroke-linecap:butt;stroke-linejoin:miter;stroke-miterlimit:10;stroke-dasharray:none;stroke-opacity:1"
             id="path6225" /></g><g
           id="g6227"
           transform="translate(68.6564,398.5712)"><path
             d="M 0,0 V -15"
             style="fill:none;stroke:#000000;stroke-width:15;stroke-linecap:butt;stroke-linejoin:miter;stroke-miterlimit:10;stroke-dasharray:none;stroke-opacity:1"
             id="path6229" /></g><g
           id="g6231"
           transform="translate(233.5,136.0712)"><path
             d="M 0,0 V -60.007 H 45 V 0"
             style="fill:none;stroke:#000000;stroke-width:15;stroke-linecap:butt;stroke-linejoin:miter;stroke-miterlimit:10;stroke-dasharray:none;stroke-opacity:1"
             id="path6233" /></g><g
           id="g6235"
           transform="translate(278.5,46.0638)"><path
             d="M 0,0 H 45.029 V 30 H 0"
             style="fill:none;stroke:#000000;stroke-width:15;stroke-linecap:butt;stroke-linejoin:miter;stroke-miterlimit:10;stroke-dasharray:none;stroke-opacity:1"
             id="path6237" /></g><g
           id="g6239"
           transform="translate(248.5128,46.0638)"><path
             d="M 0,0 H 14.952"
             style="fill:none;stroke:#000000;stroke-width:15;stroke-linecap:butt;stroke-linejoin:miter;stroke-miterlimit:10;stroke-dasharray:none;stroke-opacity:1"
             id="path6241" /></g><g
           id="g6243"
           transform="translate(233.5,76.0638)"><path
             d="M 0,0 H -45.003 V -30 H 0"
             style="fill:none;stroke:#000000;stroke-width:15;stroke-linecap:butt;stroke-linejoin:miter;stroke-miterlimit:10;stroke-dasharray:none;stroke-opacity:1"
             id="path6245" /></g></g></g></g></svg>
