<svg xmlns="http://www.w3.org/2000/svg" version="1.1" xmlns:xlink="http://www.w3.org/1999/xlink" xmlns:svgjs="http://svgjs.com/svgjs" width="512" height="512" x="0" y="0" viewBox="0 0 682.667 682.667" style="enable-background:new 0 0 512 512" xml:space="preserve" class=""><g><defs><clipPath id="a" clipPathUnits="userSpaceOnUse"><path d="M0 512h512V0H0Z" fill="#ffffff" data-original="#000000" class=""></path></clipPath></defs><g clip-path="url(#a)" transform="matrix(1.33333 0 0 -1.33333 0 682.667)"><path d="M0 0h-61.872c-12.973 0-25.929.941-38.766 2.815L-114.2 4.797" style="stroke-width:15;stroke-linecap:round;stroke-linejoin:round;stroke-miterlimit:10;stroke-dasharray:none;stroke-opacity:1" transform="translate(316.848 74.192)" fill="none" stroke="#ffffff" stroke-width="15" stroke-linecap="round" stroke-linejoin="round" stroke-miterlimit="10" stroke-dasharray="none" stroke-opacity="" data-original="#000000" class=""></path><path d="M0 0c-9.189-81.568-78.406-144.964-162.43-144.964-90.279 0-163.465 73.186-163.465 163.465s73.186 163.465 163.465 163.465c84.413 0 153.882-63.985 162.553-146.099" style="stroke-width:15;stroke-linecap:round;stroke-linejoin:round;stroke-miterlimit:10;stroke-dasharray:none;stroke-opacity:1" transform="translate(418.43 322.534)" fill="none" stroke="#ffffff" stroke-width="15" stroke-linecap="round" stroke-linejoin="round" stroke-miterlimit="10" stroke-dasharray="none" stroke-opacity="" data-original="#000000" class=""></path><path d="M0 0c-4.305 11.448-13.048 20.968-24.65 26.075-15.231 6.705-43.986 10.946-58.14 12.723l-41.423-26.151-41.641 25.801c-14.139-1.895-42.857-6.38-58.03-13.213-10.636-4.789-18.82-13.293-23.343-23.565" style="stroke-width:15;stroke-linecap:round;stroke-linejoin:round;stroke-miterlimit:10;stroke-dasharray:none;stroke-opacity:1" transform="translate(378.901 233.277)" fill="none" stroke="#ffffff" stroke-width="15" stroke-linecap="round" stroke-linejoin="round" stroke-miterlimit="10" stroke-dasharray="none" stroke-opacity="" data-original="#000000" class=""></path><path d="m0 0-46.359-.195C-54.822-.23-61.992-5.687-64.602-13.26c-.977-2.838-3.675-4.723-6.677-4.736-10.789-.046-19.499-8.829-19.453-19.618l.17-40.736s17.142.277 22.963-5.417c1.225-1.197 3.281-.34 3.274 1.371l-.113 26.779c-.04 9.298 7.466 16.867 16.764 16.906l.202.001a27.174 27.174 0 0 0 8.179-1.225c5.018-1.556 10.209-2.481 15.463-2.459l2.08.009c5.253.023 10.437.99 15.441 2.59 2.63.84 5.382 1.281 8.168 1.293l.203.001c9.297.039 16.867-7.466 16.906-16.765l.113-26.778c.007-1.712 10.21-2.517 11.424-1.31 5.774 5.743 14.776 5.577 14.776 5.577l-.138 33.014C45.037-19.936 24.827.105 0 0Z" style="stroke-width:15;stroke-linecap:round;stroke-linejoin:round;stroke-miterlimit:10;stroke-dasharray:none;stroke-opacity:1" transform="translate(276.745 462.402)" fill="none" stroke="#ffffff" stroke-width="15" stroke-linecap="round" stroke-linejoin="round" stroke-miterlimit="10" stroke-dasharray="none" stroke-opacity="" data-original="#000000" class=""></path><path d="M0 0c-3.415-1.792-5.743-5.373-5.726-9.496l.05-11.829c.026-5.896 4.824-10.654 10.72-10.629l4.037.017c.398-15.491 6.971-30.374 18.774-40.451 9.502-8.113 22.842-15.173 40.424-15.295 17.58.271 30.86 7.443 40.293 15.635 11.718 10.177 18.165 25.114 18.433 40.609l4.037.016c5.895.025 10.654 4.824 10.629 10.719l-.05 11.829c-.017 4.124-2.375 7.685-5.805 9.448" style="stroke-width:15;stroke-linecap:round;stroke-linejoin:round;stroke-miterlimit:10;stroke-dasharray:none;stroke-opacity:1" transform="translate(186.197 384.053)" fill="none" stroke="#ffffff" stroke-width="15" stroke-linecap="round" stroke-linejoin="round" stroke-miterlimit="10" stroke-dasharray="none" stroke-opacity="" data-original="#000000" class=""></path><path d="M0 0a9.514 9.514 0 0 0-8.334 9.398l-.106 25.143" style="stroke-width:15;stroke-linecap:round;stroke-linejoin:round;stroke-miterlimit:10;stroke-dasharray:none;stroke-opacity:1" transform="translate(296.111 272.075)" fill="none" stroke="#ffffff" stroke-width="15" stroke-linecap="round" stroke-linejoin="round" stroke-miterlimit="10" stroke-dasharray="none" stroke-opacity="" data-original="#000000" class=""></path><path d="m0 0 .105-25.143a9.51 9.51 0 0 0-8.253-9.467" style="stroke-width:15;stroke-linecap:round;stroke-linejoin:round;stroke-miterlimit:10;stroke-dasharray:none;stroke-opacity:1" transform="translate(221.196 306.336)" fill="none" stroke="#ffffff" stroke-width="15" stroke-linecap="round" stroke-linejoin="round" stroke-miterlimit="10" stroke-dasharray="none" stroke-opacity="" data-original="#000000" class=""></path><path d="m0 0 27.043-29.546a16.62 16.62 0 0 1 19.87-3.555l23.44 12.073" style="stroke-width:15;stroke-linecap:round;stroke-linejoin:round;stroke-miterlimit:10;stroke-dasharray:none;stroke-opacity:1" transform="translate(184.336 266.953)" fill="none" stroke="#ffffff" stroke-width="15" stroke-linecap="round" stroke-linejoin="round" stroke-miterlimit="10" stroke-dasharray="none" stroke-opacity="" data-original="#000000" class=""></path><path d="m0 0-26.776-29.818a16.62 16.62 0 0 0-19.881-3.721L-70.174-21.62" style="stroke-width:15;stroke-linecap:round;stroke-linejoin:round;stroke-miterlimit:10;stroke-dasharray:none;stroke-opacity:1" transform="translate(324.862 267.545)" fill="none" stroke="#ffffff" stroke-width="15" stroke-linecap="round" stroke-linejoin="round" stroke-miterlimit="10" stroke-dasharray="none" stroke-opacity="" data-original="#000000" class=""></path><path d="m0 0-8.217-35.393" style="stroke-width:15;stroke-linecap:round;stroke-linejoin:round;stroke-miterlimit:10;stroke-dasharray:none;stroke-opacity:1" transform="translate(241.624 214.533)" fill="none" stroke="#ffffff" stroke-width="15" stroke-linecap="round" stroke-linejoin="round" stroke-miterlimit="10" stroke-dasharray="none" stroke-opacity="" data-original="#000000" class=""></path><path d="m0 0-8.621 35.76" style="stroke-width:15;stroke-linecap:round;stroke-linejoin:round;stroke-miterlimit:10;stroke-dasharray:none;stroke-opacity:1" transform="translate(276.616 178.885)" fill="none" stroke="#ffffff" stroke-width="15" stroke-linecap="round" stroke-linejoin="round" stroke-miterlimit="10" stroke-dasharray="none" stroke-opacity="" data-original="#000000" class=""></path><path d="M0 0c-.041-.021-.084-.037-.125-.058l10.5-19.261 26.371.111L47.1.088c-.048.023-.097.041-.144.065" style="stroke-width:15;stroke-linecap:round;stroke-linejoin:round;stroke-miterlimit:10;stroke-dasharray:none;stroke-opacity:1" transform="translate(231.249 233.852)" fill="none" stroke="#ffffff" stroke-width="15" stroke-linecap="round" stroke-linejoin="round" stroke-miterlimit="10" stroke-dasharray="none" stroke-opacity="" data-original="#000000" class=""></path><path d="M0 0v-70.656c0-7.459-6.047-13.506-13.506-13.506h-22.941c-7.459 0-13.506 6.047-13.506 13.506V75.85c0 7.459 6.047 13.505 13.506 13.505h22.941C-6.047 89.355 0 83.309 0 75.85V35.817" style="stroke-width:15;stroke-linecap:round;stroke-linejoin:round;stroke-miterlimit:10;stroke-dasharray:none;stroke-opacity:1" transform="translate(80.093 105.662)" fill="none" stroke="#ffffff" stroke-width="15" stroke-linecap="round" stroke-linejoin="round" stroke-miterlimit="10" stroke-dasharray="none" stroke-opacity="" data-original="#000000" class=""></path><path d="m0 0 86.965-32.37a78.054 78.054 0 0 1 27.221-4.901h105.683a78.034 78.034 0 0 1 41.768 12.119l132.325 74.655c8.73 7.752 10.349 20.78 3.781 30.433-7.186 10.561-19.075 12.396-32.156 6.21L236.755 29.421l.152 12.262c-1.706 17.156-14.916 30.925-31.987 33.34l-78.454 9.034c-18.099 2.56-27.143 8.625-42.919 17.854a140.61 140.61 0 0 1-71.001 19.241H0" style="stroke-width:15;stroke-linecap:round;stroke-linejoin:round;stroke-miterlimit:10;stroke-dasharray:none;stroke-opacity:1" transform="translate(80.093 44.772)" fill="none" stroke="#ffffff" stroke-width="15" stroke-linecap="round" stroke-linejoin="round" stroke-miterlimit="10" stroke-dasharray="none" stroke-opacity="" data-original="#000000" class=""></path></g></g></svg>